<mxfile host="app.diagrams.net" modified="2021-06-28T17:53:51.008Z" agent="5.0 (Windows NT 6.2; Win64; x64) AppleWebKit/537.36 (KHTML, like Gecko) Chrome/91.0.4472.114 Safari/537.36" etag="J0WtqFchFWcv8aHdHmu7" version="14.8.1" type="github">
  <diagram name="Page-1" id="13e1069c-82ec-6db2-03f1-153e76fe0fe0">
    <mxGraphModel dx="2514" dy="758" grid="1" gridSize="10" guides="1" tooltips="1" connect="1" arrows="1" fold="1" page="1" pageScale="1" pageWidth="1100" pageHeight="850" background="none" math="0" shadow="0">
      <root>
        <mxCell id="0" />
        <mxCell id="1" parent="0" />
        <mxCell id="eenLsQ4aqH-WwrhsEZGu-145" value="" style="rounded=1;whiteSpace=wrap;html=1;dashed=1;strokeWidth=1;" parent="1" vertex="1">
          <mxGeometry x="-190" y="1536" width="490" height="334" as="geometry" />
        </mxCell>
        <mxCell id="eenLsQ4aqH-WwrhsEZGu-140" value="" style="rounded=1;whiteSpace=wrap;html=1;dashed=1;strokeWidth=1;" parent="1" vertex="1">
          <mxGeometry x="150" y="1180" width="530" height="270" as="geometry" />
        </mxCell>
        <mxCell id="eenLsQ4aqH-WwrhsEZGu-64" value="" style="rounded=1;whiteSpace=wrap;html=1;dashed=1;strokeWidth=1;" parent="1" vertex="1">
          <mxGeometry x="150" y="620" width="810" height="440" as="geometry" />
        </mxCell>
        <mxCell id="eenLsQ4aqH-WwrhsEZGu-83" value="" style="endArrow=none;html=1;exitX=0.5;exitY=0.975;exitDx=0;exitDy=0;exitPerimeter=0;" parent="1" source="eenLsQ4aqH-WwrhsEZGu-71" edge="1">
          <mxGeometry width="50" height="50" relative="1" as="geometry">
            <mxPoint x="834" y="830" as="sourcePoint" />
            <mxPoint x="834.25" y="300.87" as="targetPoint" />
          </mxGeometry>
        </mxCell>
        <mxCell id="eenLsQ4aqH-WwrhsEZGu-84" value="" style="endArrow=none;html=1;exitX=0.6;exitY=1;exitDx=0;exitDy=0;exitPerimeter=0;" parent="1" source="eenLsQ4aqH-WwrhsEZGu-75" edge="1">
          <mxGeometry width="50" height="50" relative="1" as="geometry">
            <mxPoint x="945.25" y="828.13" as="sourcePoint" />
            <mxPoint x="944.5" y="299.9999999999999" as="targetPoint" />
          </mxGeometry>
        </mxCell>
        <mxCell id="eenLsQ4aqH-WwrhsEZGu-82" value="" style="endArrow=none;html=1;exitX=0.6;exitY=0.997;exitDx=0;exitDy=0;exitPerimeter=0;" parent="1" source="eenLsQ4aqH-WwrhsEZGu-60" edge="1">
          <mxGeometry width="50" height="50" relative="1" as="geometry">
            <mxPoint x="644.5" y="640" as="sourcePoint" />
            <mxPoint x="644.5" y="300" as="targetPoint" />
          </mxGeometry>
        </mxCell>
        <mxCell id="eenLsQ4aqH-WwrhsEZGu-1" value="Electronic Voucher Distribution System" style="text;html=1;strokeColor=none;fillColor=none;align=center;verticalAlign=middle;whiteSpace=wrap;rounded=0;fontSize=30;" parent="1" vertex="1">
          <mxGeometry x="-130" y="20" width="615" height="20" as="geometry" />
        </mxCell>
        <mxCell id="eenLsQ4aqH-WwrhsEZGu-3" value="Front End" style="rounded=0;whiteSpace=wrap;html=1;fontSize=25;" parent="1" vertex="1">
          <mxGeometry x="-490" y="80" width="780" height="60" as="geometry" />
        </mxCell>
        <mxCell id="eenLsQ4aqH-WwrhsEZGu-4" value="Backend" style="rounded=0;whiteSpace=wrap;html=1;fontSize=25;" parent="1" vertex="1">
          <mxGeometry x="640" y="80" width="320" height="60" as="geometry" />
        </mxCell>
        <mxCell id="eenLsQ4aqH-WwrhsEZGu-11" value="" style="endArrow=none;html=1;" parent="1" edge="1">
          <mxGeometry width="50" height="50" relative="1" as="geometry">
            <mxPoint x="640" y="200" as="sourcePoint" />
            <mxPoint x="950" y="200" as="targetPoint" />
            <Array as="points">
              <mxPoint x="800" y="200" />
            </Array>
          </mxGeometry>
        </mxCell>
        <mxCell id="eenLsQ4aqH-WwrhsEZGu-59" value="Voucher Management" style="rounded=0;whiteSpace=wrap;html=1;" parent="1" vertex="1">
          <mxGeometry x="610" y="240" width="80" height="60" as="geometry" />
        </mxCell>
        <mxCell id="eenLsQ4aqH-WwrhsEZGu-60" value="" style="html=1;points=[];perimeter=orthogonalPerimeter;rounded=0;shadow=0;comic=0;labelBackgroundColor=none;strokeWidth=1;fontFamily=Verdana;fontSize=12;align=center;" parent="1" vertex="1">
          <mxGeometry x="640" y="660" width="10" height="780" as="geometry" />
        </mxCell>
        <mxCell id="eenLsQ4aqH-WwrhsEZGu-62" value="List of Products Allowed &lt;br&gt;to sell for shop" style="html=1;verticalAlign=bottom;endArrow=open;dashed=1;endSize=8;labelBackgroundColor=none;fontFamily=Verdana;fontSize=12;" parent="1" edge="1">
          <mxGeometry x="0.0197" y="-4" relative="1" as="geometry">
            <mxPoint x="300" y="710" as="targetPoint" />
            <mxPoint x="630" y="710" as="sourcePoint" />
            <mxPoint as="offset" />
          </mxGeometry>
        </mxCell>
        <mxCell id="eenLsQ4aqH-WwrhsEZGu-67" value="Payment Gateway" style="rounded=0;whiteSpace=wrap;html=1;" parent="1" vertex="1">
          <mxGeometry x="795" y="240" width="80" height="60" as="geometry" />
        </mxCell>
        <mxCell id="eenLsQ4aqH-WwrhsEZGu-70" value="Voucher Delivery" style="rounded=0;whiteSpace=wrap;html=1;" parent="1" vertex="1">
          <mxGeometry x="910" y="240" width="80" height="60" as="geometry" />
        </mxCell>
        <mxCell id="eenLsQ4aqH-WwrhsEZGu-71" value="" style="html=1;points=[];perimeter=orthogonalPerimeter;rounded=0;shadow=0;comic=0;labelBackgroundColor=none;strokeWidth=1;fontFamily=Verdana;fontSize=12;align=center;" parent="1" vertex="1">
          <mxGeometry x="830" y="860" width="10" height="40" as="geometry" />
        </mxCell>
        <mxCell id="eenLsQ4aqH-WwrhsEZGu-74" value="Payment Result" style="html=1;verticalAlign=bottom;endArrow=open;dashed=1;endSize=8;labelBackgroundColor=none;fontFamily=Verdana;fontSize=12;exitX=-0.1;exitY=0.975;exitDx=0;exitDy=0;exitPerimeter=0;" parent="1" source="eenLsQ4aqH-WwrhsEZGu-71" edge="1">
          <mxGeometry x="0.0197" y="-4" relative="1" as="geometry">
            <mxPoint x="660" y="899" as="targetPoint" />
            <mxPoint x="820" y="899" as="sourcePoint" />
            <mxPoint as="offset" />
          </mxGeometry>
        </mxCell>
        <mxCell id="eenLsQ4aqH-WwrhsEZGu-75" value="" style="html=1;points=[];perimeter=orthogonalPerimeter;rounded=0;shadow=0;comic=0;labelBackgroundColor=none;strokeWidth=1;fontFamily=Verdana;fontSize=12;align=center;" parent="1" vertex="1">
          <mxGeometry x="940" y="880" width="10" height="40" as="geometry" />
        </mxCell>
        <mxCell id="eenLsQ4aqH-WwrhsEZGu-76" value="" style="endArrow=classic;html=1;entryX=-0.3;entryY=0.475;entryDx=0;entryDy=0;entryPerimeter=0;" parent="1" edge="1">
          <mxGeometry width="50" height="50" relative="1" as="geometry">
            <mxPoint x="650" y="919.5" as="sourcePoint" />
            <mxPoint x="937" y="919" as="targetPoint" />
            <Array as="points">
              <mxPoint x="710" y="919.5" />
              <mxPoint x="820" y="919.5" />
            </Array>
          </mxGeometry>
        </mxCell>
        <mxCell id="eenLsQ4aqH-WwrhsEZGu-77" value="Voucher" style="edgeLabel;html=1;align=center;verticalAlign=middle;resizable=0;points=[];" parent="eenLsQ4aqH-WwrhsEZGu-76" vertex="1" connectable="0">
          <mxGeometry x="-0.2381" y="-1" relative="1" as="geometry">
            <mxPoint x="20" y="-10" as="offset" />
          </mxGeometry>
        </mxCell>
        <mxCell id="eenLsQ4aqH-WwrhsEZGu-80" value="Transaction Result with Voucher" style="html=1;verticalAlign=bottom;endArrow=open;dashed=1;endSize=8;labelBackgroundColor=none;fontFamily=Verdana;fontSize=12;" parent="1" edge="1">
          <mxGeometry x="0.0197" y="-4" relative="1" as="geometry">
            <mxPoint x="300" y="952" as="targetPoint" />
            <mxPoint x="640" y="950" as="sourcePoint" />
            <mxPoint as="offset" />
          </mxGeometry>
        </mxCell>
        <mxCell id="eenLsQ4aqH-WwrhsEZGu-61" value="" style="endArrow=classic;html=1;entryX=0.1;entryY=0;entryDx=0;entryDy=0;entryPerimeter=0;exitX=1.3;exitY=-0.003;exitDx=0;exitDy=0;exitPerimeter=0;" parent="1" source="eenLsQ4aqH-WwrhsEZGu-57" target="eenLsQ4aqH-WwrhsEZGu-60" edge="1">
          <mxGeometry x="290" y="251" width="50" height="50" as="geometry">
            <mxPoint x="340" y="660" as="sourcePoint" />
            <mxPoint x="550" y="660" as="targetPoint" />
            <Array as="points">
              <mxPoint x="400" y="660" />
            </Array>
          </mxGeometry>
        </mxCell>
        <mxCell id="eenLsQ4aqH-WwrhsEZGu-63" value="Get Products List :&lt;b&gt;shopID&lt;/b&gt;" style="edgeLabel;html=1;align=center;verticalAlign=middle;resizable=0;points=[];" parent="eenLsQ4aqH-WwrhsEZGu-61" vertex="1" connectable="0">
          <mxGeometry x="-0.2381" y="-1" relative="1" as="geometry">
            <mxPoint x="20" y="-10" as="offset" />
          </mxGeometry>
        </mxCell>
        <mxCell id="eenLsQ4aqH-WwrhsEZGu-66" value="User Journey" style="html=1;verticalAlign=bottom;endArrow=block;labelBackgroundColor=none;fontFamily=Verdana;fontSize=12;elbow=vertical;edgeStyle=orthogonalEdgeStyle;curved=1;exitX=1.066;exitY=0.713;exitPerimeter=0;" parent="1" edge="1">
          <mxGeometry as="geometry">
            <mxPoint x="295.65999999999985" y="740.0100000000002" as="sourcePoint" />
            <mxPoint x="290" y="779.0999999999999" as="targetPoint" />
            <Array as="points">
              <mxPoint x="345" y="740.1" />
              <mxPoint x="345" y="779.1" />
            </Array>
            <mxPoint x="52" y="-20" as="offset" />
          </mxGeometry>
        </mxCell>
        <mxCell id="eenLsQ4aqH-WwrhsEZGu-72" value="" style="endArrow=classic;html=1;entryX=0;entryY=0.05;entryDx=0;entryDy=0;entryPerimeter=0;" parent="1" source="eenLsQ4aqH-WwrhsEZGu-57" target="eenLsQ4aqH-WwrhsEZGu-71" edge="1">
          <mxGeometry x="300" y="270" width="50" height="50" as="geometry">
            <mxPoint x="350" y="862" as="sourcePoint" />
            <mxPoint x="810" y="859" as="targetPoint" />
            <Array as="points">
              <mxPoint x="410" y="860" />
            </Array>
          </mxGeometry>
        </mxCell>
        <mxCell id="eenLsQ4aqH-WwrhsEZGu-73" value="Make Payment" style="edgeLabel;html=1;align=center;verticalAlign=middle;resizable=0;points=[];" parent="eenLsQ4aqH-WwrhsEZGu-72" vertex="1" connectable="0">
          <mxGeometry x="-0.2381" y="-1" relative="1" as="geometry">
            <mxPoint x="20" y="-10" as="offset" />
          </mxGeometry>
        </mxCell>
        <mxCell id="eenLsQ4aqH-WwrhsEZGu-100" value="" style="endArrow=none;html=1;" parent="1" edge="1">
          <mxGeometry x="605.5" y="210" width="50" height="50" as="geometry">
            <mxPoint x="641" y="240" as="sourcePoint" />
            <mxPoint x="640.5" y="200" as="targetPoint" />
          </mxGeometry>
        </mxCell>
        <mxCell id="eenLsQ4aqH-WwrhsEZGu-101" value="" style="endArrow=none;html=1;" parent="1" edge="1">
          <mxGeometry x="804.5" y="210" width="50" height="50" as="geometry">
            <mxPoint x="840" y="240" as="sourcePoint" />
            <mxPoint x="840" y="200" as="targetPoint" />
          </mxGeometry>
        </mxCell>
        <mxCell id="eenLsQ4aqH-WwrhsEZGu-102" value="" style="endArrow=none;html=1;" parent="1" edge="1">
          <mxGeometry x="909" y="210" width="50" height="50" as="geometry">
            <mxPoint x="944.5" y="240" as="sourcePoint" />
            <mxPoint x="944.5" y="200" as="targetPoint" />
          </mxGeometry>
        </mxCell>
        <mxCell id="eenLsQ4aqH-WwrhsEZGu-106" value="Steps" style="swimlane;fontStyle=0;childLayout=stackLayout;horizontal=1;startSize=26;horizontalStack=0;resizeParent=1;resizeParentMax=0;resizeLast=0;collapsible=1;marginBottom=0;" parent="1" vertex="1" collapsed="1">
          <mxGeometry x="350" y="740" width="60" height="26" as="geometry">
            <mxRectangle x="350" y="740" width="200" height="100" as="alternateBounds" />
          </mxGeometry>
        </mxCell>
        <mxCell id="eenLsQ4aqH-WwrhsEZGu-108" value="1. List products&#xa;2. Select Quantity&#xa;3. Collect Customer Info&#xa;4. Select Payment Method&#xa;5. Select Voucher Delivery Method" style="text;strokeColor=none;fillColor=none;align=left;verticalAlign=top;spacingLeft=4;spacingRight=4;overflow=hidden;rotatable=0;points=[[0,0.5],[1,0.5]];portConstraint=eastwest;" parent="eenLsQ4aqH-WwrhsEZGu-106" vertex="1">
          <mxGeometry y="26" width="60" height="74" as="geometry" />
        </mxCell>
        <mxCell id="eenLsQ4aqH-WwrhsEZGu-65" value="Cashier Subsystem" style="text;html=1;strokeColor=none;fillColor=none;align=center;verticalAlign=middle;whiteSpace=wrap;rounded=0;fontSize=20;labelBackgroundColor=#ffffff;" parent="1" vertex="1">
          <mxGeometry x="330" y="575" width="400" height="40" as="geometry" />
        </mxCell>
        <mxCell id="eenLsQ4aqH-WwrhsEZGu-34" value="" style="endArrow=classic;html=1;exitX=1.1;exitY=0.439;exitDx=0;exitDy=0;exitPerimeter=0;" parent="1" source="eenLsQ4aqH-WwrhsEZGu-32" edge="1">
          <mxGeometry x="-680" y="214" width="50" height="50" as="geometry">
            <mxPoint x="-440" y="418" as="sourcePoint" />
            <mxPoint x="-172" y="418" as="targetPoint" />
          </mxGeometry>
        </mxCell>
        <mxCell id="eenLsQ4aqH-WwrhsEZGu-35" value="User Login request&lt;br&gt;POST: email &amp;amp; domain password" style="edgeLabel;html=1;align=center;verticalAlign=middle;resizable=0;points=[];" parent="eenLsQ4aqH-WwrhsEZGu-34" vertex="1" connectable="0">
          <mxGeometry x="0.0282" y="1" relative="1" as="geometry">
            <mxPoint x="-4" y="-19" as="offset" />
          </mxGeometry>
        </mxCell>
        <mxCell id="eenLsQ4aqH-WwrhsEZGu-26" value="Actor" style="shape=umlActor;verticalLabelPosition=bottom;verticalAlign=top;html=1;outlineConnect=0;" parent="1" vertex="1">
          <mxGeometry x="-710" y="288" width="30" height="60" as="geometry" />
        </mxCell>
        <mxCell id="eenLsQ4aqH-WwrhsEZGu-27" value="" style="endArrow=classic;html=1;" parent="1" edge="1">
          <mxGeometry x="-710" y="207.5" width="50" height="50" as="geometry">
            <mxPoint x="-680" y="337.5" as="sourcePoint" />
            <mxPoint x="-510" y="337.5" as="targetPoint" />
          </mxGeometry>
        </mxCell>
        <mxCell id="eenLsQ4aqH-WwrhsEZGu-28" value="Navigate to any system URL" style="edgeLabel;html=1;align=center;verticalAlign=middle;resizable=0;points=[];" parent="eenLsQ4aqH-WwrhsEZGu-27" vertex="1" connectable="0">
          <mxGeometry x="-0.0741" y="2" relative="1" as="geometry">
            <mxPoint x="-5" y="-8" as="offset" />
          </mxGeometry>
        </mxCell>
        <mxCell id="eenLsQ4aqH-WwrhsEZGu-17" value="" style="endArrow=none;html=1;" parent="1" edge="1">
          <mxGeometry x="-710" y="208" width="50" height="50" as="geometry">
            <mxPoint x="-490" y="248" as="sourcePoint" />
            <mxPoint x="-490" y="198" as="targetPoint" />
          </mxGeometry>
        </mxCell>
        <mxCell id="eenLsQ4aqH-WwrhsEZGu-20" value="MVC" style="rounded=0;whiteSpace=wrap;html=1;" parent="1" vertex="1">
          <mxGeometry x="-530" y="248" width="80" height="60" as="geometry" />
        </mxCell>
        <mxCell id="eenLsQ4aqH-WwrhsEZGu-24" value="" style="endArrow=none;html=1;exitX=0.6;exitY=1.017;exitDx=0;exitDy=0;exitPerimeter=0;" parent="1" source="eenLsQ4aqH-WwrhsEZGu-32" edge="1">
          <mxGeometry x="-710" y="208" width="50" height="50" as="geometry">
            <mxPoint x="-490.5" y="568" as="sourcePoint" />
            <mxPoint x="-490.5" y="308" as="targetPoint" />
          </mxGeometry>
        </mxCell>
        <mxCell id="eenLsQ4aqH-WwrhsEZGu-32" value="" style="html=1;points=[];perimeter=orthogonalPerimeter;rounded=0;shadow=0;comic=0;labelBackgroundColor=none;strokeWidth=1;fontFamily=Verdana;fontSize=12;align=center;" parent="1" vertex="1">
          <mxGeometry x="-495" y="338" width="10" height="180" as="geometry" />
        </mxCell>
        <mxCell id="eenLsQ4aqH-WwrhsEZGu-31" value="Cookie Authentication &lt;br&gt;tracking a User Session" style="html=1;verticalAlign=bottom;endArrow=block;labelBackgroundColor=none;fontFamily=Verdana;fontSize=12;elbow=vertical;edgeStyle=orthogonalEdgeStyle;curved=1;exitX=1.066;exitY=0.713;exitPerimeter=0;" parent="1" edge="1">
          <mxGeometry x="-430" y="8" as="geometry">
            <mxPoint x="-479.3399999999999" y="338.0100000000001" as="sourcePoint" />
            <mxPoint x="-485" y="377.1" as="targetPoint" />
            <Array as="points">
              <mxPoint x="-430" y="338.1" />
              <mxPoint x="-430" y="377.1" />
            </Array>
            <mxPoint x="132" as="offset" />
          </mxGeometry>
        </mxCell>
        <mxCell id="eenLsQ4aqH-WwrhsEZGu-41" value="" style="endArrow=classic;html=1;" parent="1" edge="1">
          <mxGeometry x="-710" y="238" width="50" height="50" as="geometry">
            <mxPoint x="-485" y="518" as="sourcePoint" />
            <mxPoint y="519" as="targetPoint" />
            <Array as="points">
              <mxPoint x="-415" y="518" />
            </Array>
          </mxGeometry>
        </mxCell>
        <mxCell id="eenLsQ4aqH-WwrhsEZGu-48" value="User Group(s)" style="edgeLabel;html=1;align=center;verticalAlign=middle;resizable=0;points=[];" parent="eenLsQ4aqH-WwrhsEZGu-41" vertex="1" connectable="0">
          <mxGeometry x="-0.3677" y="1" relative="1" as="geometry">
            <mxPoint x="-3" y="-9" as="offset" />
          </mxGeometry>
        </mxCell>
        <mxCell id="eenLsQ4aqH-WwrhsEZGu-10" value="" style="endArrow=none;html=1;" parent="1" edge="1">
          <mxGeometry x="-710" y="198" width="50" height="50" as="geometry">
            <mxPoint x="-490" y="198" as="sourcePoint" />
            <mxPoint x="290" y="198" as="targetPoint" />
            <Array as="points">
              <mxPoint x="-250" y="198" />
            </Array>
          </mxGeometry>
        </mxCell>
        <mxCell id="eenLsQ4aqH-WwrhsEZGu-96" value="" style="endArrow=none;html=1;" parent="1" edge="1">
          <mxGeometry x="-710" y="198" width="50" height="50" as="geometry">
            <mxPoint x="-170" y="248" as="sourcePoint" />
            <mxPoint x="-170" y="198" as="targetPoint" />
          </mxGeometry>
        </mxCell>
        <mxCell id="eenLsQ4aqH-WwrhsEZGu-49" value="" style="endArrow=none;html=1;" parent="1" edge="1">
          <mxGeometry x="250" y="208" width="50" height="50" as="geometry">
            <mxPoint x="284.5" y="248" as="sourcePoint" />
            <mxPoint x="285" y="198" as="targetPoint" />
          </mxGeometry>
        </mxCell>
        <mxCell id="eenLsQ4aqH-WwrhsEZGu-50" value="Angular" style="rounded=0;whiteSpace=wrap;html=1;container=0;" parent="1" vertex="1">
          <mxGeometry x="250" y="248" width="80" height="60" as="geometry" />
        </mxCell>
        <mxCell id="eenLsQ4aqH-WwrhsEZGu-51" value="" style="endArrow=none;html=1;exitX=0.6;exitY=0.007;exitDx=0;exitDy=0;exitPerimeter=0;" parent="1" source="eenLsQ4aqH-WwrhsEZGu-57" edge="1">
          <mxGeometry x="250" y="208" width="50" height="50" as="geometry">
            <mxPoint x="284.5" y="648" as="sourcePoint" />
            <mxPoint x="284.5" y="308" as="targetPoint" />
          </mxGeometry>
        </mxCell>
        <mxCell id="eenLsQ4aqH-WwrhsEZGu-57" value="" style="html=1;points=[];perimeter=orthogonalPerimeter;rounded=0;shadow=0;comic=0;labelBackgroundColor=none;strokeWidth=1;fontFamily=Verdana;fontSize=12;align=center;container=0;" parent="1" vertex="1">
          <mxGeometry x="280" y="660" width="10" height="1190" as="geometry" />
        </mxCell>
        <mxCell id="eenLsQ4aqH-WwrhsEZGu-18" value="" style="endArrow=none;html=1;" parent="1" edge="1">
          <mxGeometry x="-20" y="208" width="50" height="50" as="geometry">
            <mxPoint x="14.5" y="248" as="sourcePoint" />
            <mxPoint x="15" y="198" as="targetPoint" />
          </mxGeometry>
        </mxCell>
        <mxCell id="eenLsQ4aqH-WwrhsEZGu-21" value="RBAC Engine" style="rounded=0;whiteSpace=wrap;html=1;" parent="1" vertex="1">
          <mxGeometry x="-20" y="248" width="80" height="60" as="geometry" />
        </mxCell>
        <mxCell id="eenLsQ4aqH-WwrhsEZGu-40" value="" style="endArrow=none;html=1;" parent="1" edge="1">
          <mxGeometry x="-20" y="208" width="50" height="50" as="geometry">
            <mxPoint x="15" y="548" as="sourcePoint" />
            <mxPoint x="14.5" y="308" as="targetPoint" />
          </mxGeometry>
        </mxCell>
        <mxCell id="eenLsQ4aqH-WwrhsEZGu-43" value="Authorization&lt;br&gt;Check if User Group&lt;br&gt;Has Access to URL" style="edgeLabel;html=1;align=center;verticalAlign=middle;resizable=0;points=[];" parent="1" vertex="1" connectable="0">
          <mxGeometry x="79.99881656878733" y="493.99615454283605" as="geometry" />
        </mxCell>
        <mxCell id="eenLsQ4aqH-WwrhsEZGu-52" value="" style="endArrow=classic;html=1;" parent="1" edge="1">
          <mxGeometry x="-20" y="208" width="50" height="50" as="geometry">
            <mxPoint x="30" y="528" as="sourcePoint" />
            <mxPoint x="140" y="528" as="targetPoint" />
            <Array as="points" />
          </mxGeometry>
        </mxCell>
        <mxCell id="eenLsQ4aqH-WwrhsEZGu-56" value="" style="html=1;points=[];perimeter=orthogonalPerimeter;rounded=0;shadow=0;comic=0;labelBackgroundColor=none;strokeWidth=1;fontFamily=Verdana;fontSize=12;align=center;" parent="1" vertex="1">
          <mxGeometry x="10" y="508" width="10" height="1062" as="geometry" />
        </mxCell>
        <mxCell id="eenLsQ4aqH-WwrhsEZGu-22" value="Active Directory" style="rounded=0;whiteSpace=wrap;html=1;" parent="1" vertex="1">
          <mxGeometry x="-230" y="248" width="120" height="60" as="geometry" />
        </mxCell>
        <mxCell id="eenLsQ4aqH-WwrhsEZGu-23" value="" style="endArrow=none;html=1;" parent="1" edge="1">
          <mxGeometry x="-230" y="248" width="50" height="50" as="geometry">
            <mxPoint x="-170" y="468" as="sourcePoint" />
            <mxPoint x="-170" y="308" as="targetPoint" />
          </mxGeometry>
        </mxCell>
        <mxCell id="eenLsQ4aqH-WwrhsEZGu-37" value="" style="html=1;points=[];perimeter=orthogonalPerimeter;rounded=0;shadow=0;comic=0;labelBackgroundColor=none;strokeWidth=1;fontFamily=Verdana;fontSize=12;align=center;" parent="1" vertex="1">
          <mxGeometry x="-175" y="418" width="10" height="1262" as="geometry" />
        </mxCell>
        <mxCell id="eenLsQ4aqH-WwrhsEZGu-39" value="Login Response &amp;amp; user group(s)" style="html=1;verticalAlign=bottom;endArrow=open;dashed=1;endSize=8;labelBackgroundColor=none;fontFamily=Verdana;fontSize=12;entryX=0.5;entryY=0.708;entryDx=0;entryDy=0;entryPerimeter=0;" parent="1" target="eenLsQ4aqH-WwrhsEZGu-32" edge="1">
          <mxGeometry x="-230" y="248" as="geometry">
            <mxPoint x="-400" y="465.5" as="targetPoint" />
            <mxPoint x="-180" y="466" as="sourcePoint" />
            <mxPoint as="offset" />
          </mxGeometry>
        </mxCell>
        <mxCell id="eenLsQ4aqH-WwrhsEZGu-116" value="SQL DB" style="rounded=0;whiteSpace=wrap;html=1;container=0;" parent="1" vertex="1">
          <mxGeometry x="120" y="250" width="80" height="60" as="geometry" />
        </mxCell>
        <mxCell id="eenLsQ4aqH-WwrhsEZGu-117" value="" style="endArrow=none;html=1;" parent="1" edge="1">
          <mxGeometry x="125" y="210" width="50" height="50" as="geometry">
            <mxPoint x="159.5" y="250" as="sourcePoint" />
            <mxPoint x="160" y="200" as="targetPoint" />
          </mxGeometry>
        </mxCell>
        <mxCell id="eenLsQ4aqH-WwrhsEZGu-118" value="" style="endArrow=none;html=1;exitX=0.6;exitY=1.005;exitDx=0;exitDy=0;exitPerimeter=0;" parent="1" source="eenLsQ4aqH-WwrhsEZGu-119" edge="1">
          <mxGeometry x="125" y="210" width="50" height="50" as="geometry">
            <mxPoint x="159.5" y="650" as="sourcePoint" />
            <mxPoint x="159.5" y="310" as="targetPoint" />
          </mxGeometry>
        </mxCell>
        <mxCell id="eenLsQ4aqH-WwrhsEZGu-119" value="" style="html=1;points=[];perimeter=orthogonalPerimeter;rounded=0;shadow=0;comic=0;labelBackgroundColor=none;strokeWidth=1;fontFamily=Verdana;fontSize=12;align=center;container=0;" parent="1" vertex="1">
          <mxGeometry x="155" y="528" width="10" height="1312" as="geometry" />
        </mxCell>
        <mxCell id="eenLsQ4aqH-WwrhsEZGu-120" value="Access or No Access" style="html=1;verticalAlign=bottom;endArrow=open;dashed=1;endSize=8;labelBackgroundColor=none;fontFamily=Verdana;fontSize=12;exitX=0.1;exitY=0.172;exitDx=0;exitDy=0;exitPerimeter=0;" parent="1" edge="1">
          <mxGeometry x="0.0197" y="-4" relative="1" as="geometry">
            <mxPoint x="35" y="614" as="targetPoint" />
            <mxPoint x="146" y="613.5000000000001" as="sourcePoint" />
            <mxPoint as="offset" />
          </mxGeometry>
        </mxCell>
        <mxCell id="eenLsQ4aqH-WwrhsEZGu-121" value="" style="endArrow=classic;html=1;" parent="1" edge="1">
          <mxGeometry x="-30" y="340" width="50" height="50" as="geometry">
            <mxPoint x="20" y="660" as="sourcePoint" />
            <mxPoint x="290" y="660" as="targetPoint" />
            <Array as="points" />
          </mxGeometry>
        </mxCell>
        <mxCell id="eenLsQ4aqH-WwrhsEZGu-122" value="&lt;font style=&quot;font-size: 12px&quot;&gt;Navigation Authorized&lt;/font&gt;" style="edgeLabel;html=1;align=center;verticalAlign=middle;resizable=0;points=[];fontSize=20;" parent="eenLsQ4aqH-WwrhsEZGu-121" vertex="1" connectable="0">
          <mxGeometry relative="1" as="geometry">
            <mxPoint x="10" y="-20" as="offset" />
          </mxGeometry>
        </mxCell>
        <mxCell id="eenLsQ4aqH-WwrhsEZGu-123" value="Log Each &lt;br&gt;step &amp;amp; state" style="html=1;verticalAlign=bottom;endArrow=open;dashed=1;endSize=8;labelBackgroundColor=none;fontFamily=Verdana;fontSize=12;" parent="1" edge="1">
          <mxGeometry x="0.0197" y="-4" relative="1" as="geometry">
            <mxPoint x="165" y="766.0000000000001" as="targetPoint" />
            <mxPoint x="280" y="766" as="sourcePoint" />
            <mxPoint as="offset" />
          </mxGeometry>
        </mxCell>
        <mxCell id="eenLsQ4aqH-WwrhsEZGu-124" value="Record &lt;br&gt;Transaction&amp;nbsp;" style="html=1;verticalAlign=bottom;endArrow=open;dashed=1;endSize=8;labelBackgroundColor=none;fontFamily=Verdana;fontSize=12;" parent="1" edge="1">
          <mxGeometry relative="1" as="geometry">
            <mxPoint x="165" y="950" as="targetPoint" />
            <mxPoint x="275" y="950" as="sourcePoint" />
            <mxPoint as="offset" />
          </mxGeometry>
        </mxCell>
        <mxCell id="eenLsQ4aqH-WwrhsEZGu-44" value="Groups" style="swimlane;fontStyle=0;childLayout=stackLayout;horizontal=1;startSize=26;horizontalStack=0;resizeParent=1;resizeParentMax=0;resizeLast=0;collapsible=1;marginBottom=0;labelBackgroundColor=#ffffff;html=1;" parent="1" vertex="1" collapsed="1">
          <mxGeometry x="-370" y="472" width="70" height="26" as="geometry">
            <mxRectangle x="-370" y="472" width="140" height="80" as="alternateBounds" />
          </mxGeometry>
        </mxCell>
        <mxCell id="eenLsQ4aqH-WwrhsEZGu-45" value="Cashier&#xa;Supervisor&#xa;Admin" style="text;strokeColor=none;fillColor=none;align=left;verticalAlign=top;spacingLeft=4;spacingRight=4;overflow=hidden;rotatable=0;points=[[0,0.5],[1,0.5]];portConstraint=eastwest;labelBackgroundColor=#ffffff;" parent="eenLsQ4aqH-WwrhsEZGu-44" vertex="1">
          <mxGeometry y="26" width="70" height="54" as="geometry" />
        </mxCell>
        <mxCell id="eenLsQ4aqH-WwrhsEZGu-54" value="URLs" style="swimlane;fontStyle=0;childLayout=stackLayout;horizontal=1;startSize=26;horizontalStack=0;resizeParent=1;resizeParentMax=0;resizeLast=0;collapsible=1;marginBottom=0;labelBackgroundColor=#FFFFFF;" parent="1" vertex="1" collapsed="1">
          <mxGeometry x="35" y="549" width="90" height="26" as="geometry">
            <mxRectangle x="35" y="549" width="140" height="420" as="alternateBounds" />
          </mxGeometry>
        </mxCell>
        <mxCell id="eenLsQ4aqH-WwrhsEZGu-55" value="Cashier&#xa;    /Shop/Index&#xa;    /Shop/Cart&#xa;    /Shop/Pay&#xa;    /Shop/Voucher&#xa;    /Shop/PrintReciept&#xa;    /Shop/Reports&#xa;    /Shop/DayEnd&#xa;&#xa;Supervisor&#xa;    /Supervisor/Index&#xa;    /Supervisor/Shop&#xa;    /Supervisor/Reports&#xa;&#xa;Admin&#xa;    /Admin/Index&#xa;    /Admin/Users&#xa;    /Admin/Roles&#xa;    /Admin/Shops&#xa;    /Admin/Cashiers&#xa;    /Admin/Supervisors&#xa;    /Admin/Finance&#xa;&#xa;" style="text;strokeColor=none;fillColor=none;align=left;verticalAlign=top;spacingLeft=4;spacingRight=4;overflow=hidden;rotatable=0;points=[[0,0.5],[1,0.5]];portConstraint=eastwest;labelBackgroundColor=#ffffff;whiteSpace=wrap;" parent="eenLsQ4aqH-WwrhsEZGu-54" vertex="1">
          <mxGeometry y="26" width="90" height="394" as="geometry" />
        </mxCell>
        <mxCell id="eenLsQ4aqH-WwrhsEZGu-126" value="" style="endArrow=classic;html=1;entryX=0.1;entryY=0;entryDx=0;entryDy=0;entryPerimeter=0;exitX=1.3;exitY=-0.003;exitDx=0;exitDy=0;exitPerimeter=0;" parent="1" edge="1">
          <mxGeometry x="287" y="582.1700000000001" width="50" height="50" as="geometry">
            <mxPoint x="290" y="990" as="sourcePoint" />
            <mxPoint x="638" y="991.1700000000001" as="targetPoint" />
            <Array as="points">
              <mxPoint x="397" y="991.1700000000001" />
            </Array>
          </mxGeometry>
        </mxCell>
        <mxCell id="eenLsQ4aqH-WwrhsEZGu-127" value="Get Vouchers / Transactions / Reports :&lt;b&gt;cashierID&lt;/b&gt;" style="edgeLabel;html=1;align=center;verticalAlign=middle;resizable=0;points=[];" parent="eenLsQ4aqH-WwrhsEZGu-126" vertex="1" connectable="0">
          <mxGeometry x="-0.2381" y="-1" relative="1" as="geometry">
            <mxPoint x="20" y="-10" as="offset" />
          </mxGeometry>
        </mxCell>
        <mxCell id="eenLsQ4aqH-WwrhsEZGu-128" value="Vouchers / Transactions / Reports" style="html=1;verticalAlign=bottom;endArrow=open;dashed=1;endSize=8;labelBackgroundColor=none;fontFamily=Verdana;fontSize=12;" parent="1" edge="1">
          <mxGeometry x="0.0197" y="-4" relative="1" as="geometry">
            <mxPoint x="290" y="1042" as="targetPoint" />
            <mxPoint x="630" y="1040" as="sourcePoint" />
            <mxPoint as="offset" />
          </mxGeometry>
        </mxCell>
        <mxCell id="eenLsQ4aqH-WwrhsEZGu-129" value="" style="endArrow=classic;html=1;" parent="1" edge="1">
          <mxGeometry x="-40" y="900" width="50" height="50" as="geometry">
            <mxPoint x="10" y="1220" as="sourcePoint" />
            <mxPoint x="280" y="1220" as="targetPoint" />
            <Array as="points" />
          </mxGeometry>
        </mxCell>
        <mxCell id="eenLsQ4aqH-WwrhsEZGu-130" value="&lt;font style=&quot;font-size: 12px&quot;&gt;Navigation Authorized&lt;/font&gt;" style="edgeLabel;html=1;align=center;verticalAlign=middle;resizable=0;points=[];fontSize=20;" parent="eenLsQ4aqH-WwrhsEZGu-129" vertex="1" connectable="0">
          <mxGeometry relative="1" as="geometry">
            <mxPoint x="10" y="-20" as="offset" />
          </mxGeometry>
        </mxCell>
        <mxCell id="eenLsQ4aqH-WwrhsEZGu-131" value="" style="endArrow=classic;html=1;entryX=0.1;entryY=0;entryDx=0;entryDy=0;entryPerimeter=0;exitX=1.3;exitY=-0.003;exitDx=0;exitDy=0;exitPerimeter=0;" parent="1" edge="1">
          <mxGeometry x="287" y="812.86" width="50" height="50" as="geometry">
            <mxPoint x="290" y="1220" as="sourcePoint" />
            <mxPoint x="638" y="1221.8600000000001" as="targetPoint" />
            <Array as="points">
              <mxPoint x="397" y="1221.8600000000001" />
            </Array>
          </mxGeometry>
        </mxCell>
        <mxCell id="eenLsQ4aqH-WwrhsEZGu-132" value="Get Cashiers List :&lt;b&gt;shopID&lt;/b&gt;" style="edgeLabel;html=1;align=center;verticalAlign=middle;resizable=0;points=[];" parent="eenLsQ4aqH-WwrhsEZGu-131" vertex="1" connectable="0">
          <mxGeometry x="-0.2381" y="-1" relative="1" as="geometry">
            <mxPoint x="20" y="-10" as="offset" />
          </mxGeometry>
        </mxCell>
        <mxCell id="eenLsQ4aqH-WwrhsEZGu-133" value="List of Cashiers in&amp;nbsp;shop" style="html=1;verticalAlign=bottom;endArrow=open;dashed=1;endSize=8;labelBackgroundColor=none;fontFamily=Verdana;fontSize=12;" parent="1" edge="1">
          <mxGeometry x="0.0197" y="-4" relative="1" as="geometry">
            <mxPoint x="300" y="1260" as="targetPoint" />
            <mxPoint x="630" y="1260" as="sourcePoint" />
            <mxPoint as="offset" />
          </mxGeometry>
        </mxCell>
        <mxCell id="eenLsQ4aqH-WwrhsEZGu-134" value="" style="endArrow=classic;html=1;entryX=0.1;entryY=0;entryDx=0;entryDy=0;entryPerimeter=0;exitX=1.3;exitY=-0.003;exitDx=0;exitDy=0;exitPerimeter=0;" parent="1" edge="1">
          <mxGeometry x="287" y="912.86" width="50" height="50" as="geometry">
            <mxPoint x="290" y="1320" as="sourcePoint" />
            <mxPoint x="638" y="1321.8600000000001" as="targetPoint" />
            <Array as="points">
              <mxPoint x="397" y="1321.8600000000001" />
            </Array>
          </mxGeometry>
        </mxCell>
        <mxCell id="eenLsQ4aqH-WwrhsEZGu-135" value="POST Activate/ Deactivate Cashier :&lt;b&gt;shopID&lt;/b&gt;" style="edgeLabel;html=1;align=center;verticalAlign=middle;resizable=0;points=[];" parent="eenLsQ4aqH-WwrhsEZGu-134" vertex="1" connectable="0">
          <mxGeometry x="-0.2381" y="-1" relative="1" as="geometry">
            <mxPoint x="20" y="-10" as="offset" />
          </mxGeometry>
        </mxCell>
        <mxCell id="eenLsQ4aqH-WwrhsEZGu-136" value="Activate / Deactivate Response" style="html=1;verticalAlign=bottom;endArrow=open;dashed=1;endSize=8;labelBackgroundColor=none;fontFamily=Verdana;fontSize=12;" parent="1" edge="1">
          <mxGeometry x="0.0197" y="-4" relative="1" as="geometry">
            <mxPoint x="300" y="1350" as="targetPoint" />
            <mxPoint x="630" y="1350" as="sourcePoint" />
            <mxPoint as="offset" />
          </mxGeometry>
        </mxCell>
        <mxCell id="eenLsQ4aqH-WwrhsEZGu-137" value="" style="endArrow=classic;html=1;entryX=0.1;entryY=0;entryDx=0;entryDy=0;entryPerimeter=0;exitX=1.3;exitY=-0.003;exitDx=0;exitDy=0;exitPerimeter=0;" parent="1" edge="1">
          <mxGeometry x="287" y="992.86" width="50" height="50" as="geometry">
            <mxPoint x="290" y="1400" as="sourcePoint" />
            <mxPoint x="638" y="1401.8600000000001" as="targetPoint" />
            <Array as="points">
              <mxPoint x="397" y="1401.8600000000001" />
            </Array>
          </mxGeometry>
        </mxCell>
        <mxCell id="eenLsQ4aqH-WwrhsEZGu-138" value="Get Transaction Report :&lt;b&gt;shopID / caashierID&lt;/b&gt;" style="edgeLabel;html=1;align=center;verticalAlign=middle;resizable=0;points=[];" parent="eenLsQ4aqH-WwrhsEZGu-137" vertex="1" connectable="0">
          <mxGeometry x="-0.2381" y="-1" relative="1" as="geometry">
            <mxPoint x="20" y="-10" as="offset" />
          </mxGeometry>
        </mxCell>
        <mxCell id="eenLsQ4aqH-WwrhsEZGu-139" value="List of Transactions in&amp;nbsp;shop" style="html=1;verticalAlign=bottom;endArrow=open;dashed=1;endSize=8;labelBackgroundColor=none;fontFamily=Verdana;fontSize=12;" parent="1" edge="1">
          <mxGeometry x="0.0197" y="-4" relative="1" as="geometry">
            <mxPoint x="300" y="1440" as="targetPoint" />
            <mxPoint x="630" y="1440" as="sourcePoint" />
            <mxPoint as="offset" />
          </mxGeometry>
        </mxCell>
        <mxCell id="eenLsQ4aqH-WwrhsEZGu-141" value="Log Each &lt;br&gt;step &amp;amp; state" style="html=1;verticalAlign=bottom;endArrow=open;dashed=1;endSize=8;labelBackgroundColor=none;fontFamily=Verdana;fontSize=12;" parent="1" edge="1">
          <mxGeometry x="0.0197" y="-4" relative="1" as="geometry">
            <mxPoint x="165" y="1320" as="targetPoint" />
            <mxPoint x="280" y="1320" as="sourcePoint" />
            <mxPoint as="offset" />
          </mxGeometry>
        </mxCell>
        <mxCell id="eenLsQ4aqH-WwrhsEZGu-142" value="Supervisor Subsystem" style="text;html=1;strokeColor=none;fillColor=none;align=center;verticalAlign=middle;whiteSpace=wrap;rounded=0;fontSize=20;labelBackgroundColor=#ffffff;" parent="1" vertex="1">
          <mxGeometry x="260" y="1140" width="400" height="40" as="geometry" />
        </mxCell>
        <mxCell id="eenLsQ4aqH-WwrhsEZGu-143" value="" style="endArrow=classic;html=1;" parent="1" edge="1">
          <mxGeometry x="-30" y="1247" width="50" height="50" as="geometry">
            <mxPoint x="20" y="1567" as="sourcePoint" />
            <mxPoint x="280" y="1567" as="targetPoint" />
            <Array as="points" />
          </mxGeometry>
        </mxCell>
        <mxCell id="eenLsQ4aqH-WwrhsEZGu-144" value="&lt;font style=&quot;font-size: 12px&quot;&gt;Navigation Authorized&lt;/font&gt;" style="edgeLabel;html=1;align=center;verticalAlign=middle;resizable=0;points=[];fontSize=20;" parent="eenLsQ4aqH-WwrhsEZGu-143" vertex="1" connectable="0">
          <mxGeometry relative="1" as="geometry">
            <mxPoint x="10" y="-20" as="offset" />
          </mxGeometry>
        </mxCell>
        <mxCell id="eenLsQ4aqH-WwrhsEZGu-154" value="Log Each &lt;br&gt;step &amp;amp; state" style="html=1;verticalAlign=bottom;endArrow=open;dashed=1;endSize=8;labelBackgroundColor=none;fontFamily=Verdana;fontSize=12;" parent="1" edge="1">
          <mxGeometry x="0.0197" y="-4" relative="1" as="geometry">
            <mxPoint x="165" y="1840" as="targetPoint" />
            <mxPoint x="280" y="1840" as="sourcePoint" />
            <mxPoint as="offset" />
          </mxGeometry>
        </mxCell>
        <mxCell id="eenLsQ4aqH-WwrhsEZGu-155" value="" style="endArrow=classic;html=1;" parent="1" edge="1">
          <mxGeometry x="-110" y="1320" width="50" height="50" as="geometry">
            <mxPoint x="270" y="1640" as="sourcePoint" />
            <mxPoint x="-160" y="1640" as="targetPoint" />
            <Array as="points" />
          </mxGeometry>
        </mxCell>
        <mxCell id="eenLsQ4aqH-WwrhsEZGu-156" value="&lt;font style=&quot;font-size: 12px&quot;&gt;Get List of Users&lt;/font&gt;" style="edgeLabel;html=1;align=center;verticalAlign=middle;resizable=0;points=[];fontSize=20;" parent="eenLsQ4aqH-WwrhsEZGu-155" vertex="1" connectable="0">
          <mxGeometry relative="1" as="geometry">
            <mxPoint x="10" y="-20" as="offset" />
          </mxGeometry>
        </mxCell>
        <mxCell id="eenLsQ4aqH-WwrhsEZGu-157" value="User List from AD" style="html=1;verticalAlign=bottom;endArrow=open;dashed=1;endSize=8;labelBackgroundColor=none;fontFamily=Verdana;fontSize=12;" parent="1" edge="1">
          <mxGeometry x="0.0261" y="-4" relative="1" as="geometry">
            <mxPoint x="270" y="1680" as="targetPoint" />
            <mxPoint x="-150" y="1680" as="sourcePoint" />
            <mxPoint as="offset" />
          </mxGeometry>
        </mxCell>
        <mxCell id="eenLsQ4aqH-WwrhsEZGu-158" value="" style="endArrow=classic;html=1;" parent="1" edge="1">
          <mxGeometry x="-105" y="1440" width="50" height="50" as="geometry">
            <mxPoint x="275" y="1760" as="sourcePoint" />
            <mxPoint x="165" y="1760" as="targetPoint" />
            <Array as="points" />
          </mxGeometry>
        </mxCell>
        <mxCell id="eenLsQ4aqH-WwrhsEZGu-159" value="&lt;font style=&quot;font-size: 12px&quot;&gt;CRUD User&lt;br&gt;CRUD Shop&lt;br&gt;CRUD Roles&lt;br&gt;&lt;/font&gt;" style="edgeLabel;html=1;align=center;verticalAlign=middle;resizable=0;points=[];fontSize=20;" parent="eenLsQ4aqH-WwrhsEZGu-158" vertex="1" connectable="0">
          <mxGeometry relative="1" as="geometry">
            <mxPoint x="-5" y="-40" as="offset" />
          </mxGeometry>
        </mxCell>
        <mxCell id="eenLsQ4aqH-WwrhsEZGu-160" value="CRUD Response" style="html=1;verticalAlign=bottom;endArrow=open;dashed=1;endSize=8;labelBackgroundColor=none;fontFamily=Verdana;fontSize=12;" parent="1" edge="1">
          <mxGeometry x="0.0261" y="-4" relative="1" as="geometry">
            <mxPoint x="280" y="1790" as="targetPoint" />
            <mxPoint x="170" y="1790" as="sourcePoint" />
            <mxPoint as="offset" />
          </mxGeometry>
        </mxCell>
        <mxCell id="eenLsQ4aqH-WwrhsEZGu-161" value="Admin Subsystem" style="text;html=1;strokeColor=none;fillColor=none;align=center;verticalAlign=middle;whiteSpace=wrap;rounded=0;fontSize=20;labelBackgroundColor=#ffffff;" parent="1" vertex="1">
          <mxGeometry x="-160" y="1496" width="400" height="40" as="geometry" />
        </mxCell>
      </root>
    </mxGraphModel>
  </diagram>
</mxfile>
